<svg xmlns="http://www.w3.org/2000/svg" xmlns:xlink="http://www.w3.org/1999/xlink" width="31" height="24" viewBox="0 0 31 24"><defs><path id="a" d="M486.72 722.47v-4.96h-2.43v4.98h-2.53v2.46h-5.88v-2.48h5.88v-2.48h-12.5v2.48l5.03.02v2.48h-5.05v-2.47h-2.53v-5h-2.43v4.95h-2.55v-7.5h2.5v-2.42h2.48v-2.55h2.55v-2.5h2.5V710l7.49.02v-2.52h2.5v2.53h2.54v2.48h2.46v2.48h2.52v7.49zm-14.97-9.99h-2.5v2.5h2.5zm10 0h-2.5v2.5h2.5zm-15.04-7.5h2.55v2.5h-2.55zm17.58 0v2.5h-2.55v-2.5z"/><path id="d" d="M460 727v-25h31v25zm29.27-3.53v-7.5h-2.52v-2.47h-2.46v-2.48h-2.55v-2.53h-2.5V711l-7.49-.02v-2.5h-2.5v2.5h-2.54v2.54h-2.48v2.41h-2.5v7.51h2.55v-4.96h2.43v5.01h2.53v2.47h5.05v-2.48l-5.03-.02v-2.48h12.5v2.48h-5.88v2.48h5.88v-2.46h2.53v-4.98h2.43v4.96zm-17.52-7.5h-2.5v-2.49h2.5zm10 0h-2.5v-2.49h2.5zm-15.04-7.48h2.55v-2.5h-2.55zm15.03-2.5v2.5h2.55v-2.5z"/><mask id="c" width="2" height="2" x="-1" y="-1"><path fill="#fff" d="M460 703h31v23h-31z"/><use xlink:href="#a"/></mask><filter id="b" width="51" height="44" x="450" y="693" filterUnits="userSpaceOnUse"><feOffset dy="1" in="SourceGraphic" result="FeOffset1147Out"/><feGaussianBlur in="FeOffset1147Out" result="FeGaussianBlur1148Out" stdDeviation="0 0"/></filter><filter id="e" width="200%" height="200%" x="-50%" y="-50%"><feGaussianBlur in="SourceGraphic" result="FeGaussianBlur1154Out" stdDeviation="0 0"/></filter><mask id="f"><use fill="#fff" xlink:href="#a"/></mask></defs><g transform="translate(-460 -703)"><g filter="url(#b)"><use fill="none" stroke-width="0" mask="url(&quot;#c&quot;)" xlink:href="#a"/><use fill="#fff" xlink:href="#a"/></g><use fill="#86bbc1" xlink:href="#a"/><use fill="#86bbc1" xlink:href="#a"/><use fill="#675d53" fill-opacity=".19" stroke="#675d53" stroke-opacity=".19" stroke-width="0" filter="url(#e)" mask="url(&quot;#f&quot;)" xlink:href="#d"/></g></svg>