<svg xmlns="http://www.w3.org/2000/svg" xmlns:xlink="http://www.w3.org/1999/xlink" width="26" height="39" viewBox="0 0 26 39"><defs><path id="a" d="M472.98 553.89l7.98 13.43a3 3 0 0 1-2.12 3.67H461.2a3 3 0 0 1-2.12-3.67l6.91-13.45.02-7.87h-.49a1.5 1.5 0 1 1 0-3h8a1.5 1.5 0 0 1 0 3h-.55l.01 7.87zm-.96-8.9h1.5a.5.5 0 0 0 0-1h-8a.5.5 0 0 0 0 1h1.5l-.02 8.91-6.95 13.62a2 2 0 0 0 1.42 2.45l17.1.02a2 2 0 0 0 1.41-2.45l-7.93-13.67zm6.22 24.05h-16.5a1 1 0 0 1-.7-1.22l4.96-9.8s1.5-2 3.56 0c2.13 2.13 3.8 0 3.8 0l5.58 9.8a1 1 0 0 1-.7 1.22zm-6.74-28.54a1 1 0 1 1 0 2 1 1 0 0 1 0-2zm0-4.5a1.5 1.5 0 1 1 0 3 1.5 1.5 0 0 1 0-3zm-4 3.5a1 1 0 1 1 0 2 1 1 0 0 1 0-2z"/><path id="d" d="M457 573v-40h26v40zm15.98-18.13l-.01-7.87h.55a1.5 1.5 0 1 0 0-3h-8a1.5 1.5 0 0 0 0 3h.49l-.02 7.87-6.91 13.45a3 3 0 0 0 2.12 3.67h17.64a3 3 0 0 0 2.12-3.67l-7.98-13.43zm-.93 0l7.93 13.67a2 2 0 0 1-1.4 2.45l-17.11-.02a2 2 0 0 1-1.42-2.45L467 554.9l.02-8.9h-1.5a.5.5 0 0 1 0-1h8a.5.5 0 0 1 0 1h-1.5zm6.19 15.17a1 1 0 0 0 .7-1.22l-5.59-9.8s-1.66 2.13-3.79 0c-2.06-2-3.56 0-3.56 0l-4.97 9.8a1 1 0 0 0 .71 1.22zm-7.74-27.54a1 1 0 1 0 2 0 1 1 0 0 0-2 0zm-.5-4a1.5 1.5 0 1 0 3 0 1.5 1.5 0 0 0-3 0zm-3.5 3a1 1 0 1 0 2 0 1 1 0 0 0-2 0z"/><mask id="c" width="2" height="2" x="-1" y="-1"><path fill="#fff" d="M457 534h26v38h-26z"/><use xlink:href="#a"/></mask><filter id="b" width="46" height="59" x="447" y="524" filterUnits="userSpaceOnUse"><feOffset dy="1" in="SourceGraphic" result="FeOffset1072Out"/><feGaussianBlur in="FeOffset1072Out" result="FeGaussianBlur1073Out" stdDeviation="0 0"/></filter><filter id="e" width="200%" height="200%" x="-50%" y="-50%"><feGaussianBlur in="SourceGraphic" result="FeGaussianBlur1079Out" stdDeviation="0 0"/></filter><mask id="f"><use fill="#fff" xlink:href="#a"/></mask></defs><g transform="translate(-457 -534)"><g filter="url(#b)"><use fill="none" stroke-width="0" mask="url(&quot;#c&quot;)" xlink:href="#a"/><use fill="#fff" xlink:href="#a"/></g><use fill="#fff" xlink:href="#a"/><use fill="#86bbc1" xlink:href="#a"/><use fill="#675d53" fill-opacity=".19" stroke="#675d53" stroke-opacity=".19" stroke-width="0" filter="url(#e)" mask="url(&quot;#f&quot;)" xlink:href="#d"/></g></svg>