<svg xmlns="http://www.w3.org/2000/svg" xmlns:xlink="http://www.w3.org/1999/xlink" width="26" height="25" viewBox="0 0 26 25"><defs><path id="a" d="M794 554.57s-1.69-3.58-5.47-3.58c-4.12 0-6.3 3.5-6.3 7 0 5.8 11.76 13.02 11.76 13.02s11.69-7.14 11.69-13.02c0-3.57-2.24-7-6.23-7s-5.46 3.58-5.46 3.58z"/><path id="d" d="M781 574v-26h26v26zm13-18.43s-1.69-3.58-5.47-3.58c-4.12 0-6.3 3.5-6.3 7 0 5.8 11.76 13.02 11.76 13.02s11.69-7.14 11.69-13.02c0-3.57-2.24-7-6.23-7s-5.46 3.58-5.46 3.58z"/><mask id="c" width="2" height="2" x="-1" y="-1"><path fill="#fff" d="M781 549h26v24h-26z"/><use xlink:href="#a"/></mask><filter id="b" width="46" height="45" x="771" y="539" filterUnits="userSpaceOnUse"><feOffset dy="1" in="SourceGraphic" result="FeOffset1097Out"/><feGaussianBlur in="FeOffset1097Out" result="FeGaussianBlur1098Out" stdDeviation="0 0"/></filter><filter id="e" width="200%" height="200%" x="-50%" y="-50%"><feGaussianBlur in="SourceGraphic" result="FeGaussianBlur1104Out" stdDeviation="0 0"/></filter><mask id="f"><use fill="#fff" xlink:href="#a"/></mask></defs><g transform="translate(-781 -549)"><g filter="url(#b)"><use fill="none" stroke-width="0" mask="url(&quot;#c&quot;)" xlink:href="#a"/><use fill="#fff" xlink:href="#a"/></g><use fill="#fff" xlink:href="#a"/><use fill="#86bbc1" xlink:href="#a"/><use fill="#675d53" fill-opacity=".19" stroke="#675d53" stroke-opacity=".19" stroke-width="0" filter="url(#e)" mask="url(&quot;#f&quot;)" xlink:href="#d"/></g></svg>