<svg xmlns="http://www.w3.org/2000/svg" xmlns:xlink="http://www.w3.org/1999/xlink" width="19" height="28" viewBox="0 0 19 28"><defs><path id="a" d="M135 703h12a2 2 0 0 1 2 2v20a2 2 0 0 1-2 2h-12a2 2 0 0 1-2-2v-20c0-1.1.9-2 2-2zm0 19h12v-16h-11.98zm3-17h5.06l-.06-1h-5zm1.98 19.5a1 1 0 1 0 2 0 1 1 0 0 0-2 0z"/><path id="d" d="M131 729v-29h19v29zm2-23v20c0 1.1.9 2 2 2h12a2 2 0 0 0 2-2v-20a2 2 0 0 0-2-2h-12a2 2 0 0 0-2 2zm2.02 1H147v16h-12zm2.98-2h5l.06 1H138zm2.98 19.5a1 1 0 1 1 0 2 1 1 0 0 1 0-2z"/><mask id="c" width="2" height="2" x="-1" y="-1"><path fill="#fff" d="M131 701h19v27h-19z"/><use xlink:href="#a"/></mask><filter id="b" width="39" height="48" x="121" y="691" filterUnits="userSpaceOnUse"><feOffset dy="1" in="SourceGraphic" result="FeOffset1122Out"/><feGaussianBlur in="FeOffset1122Out" result="FeGaussianBlur1123Out" stdDeviation="0 0"/></filter><filter id="e" width="200%" height="200%" x="-50%" y="-50%"><feGaussianBlur in="SourceGraphic" result="FeGaussianBlur1129Out" stdDeviation="0 0"/></filter><mask id="f"><use fill="#fff" xlink:href="#a"/></mask></defs><g transform="translate(-131 -701)"><g filter="url(#b)"><use fill="none" stroke-width="0" mask="url(&quot;#c&quot;)" xlink:href="#a"/><use fill="#fff" xlink:href="#a"/></g><use fill="#fff" xlink:href="#a"/><use fill="#86bbc1" xlink:href="#a"/><use fill="#675d53" fill-opacity=".19" stroke="#675d53" stroke-opacity=".19" stroke-width="0" filter="url(#e)" mask="url(&quot;#f&quot;)" xlink:href="#d"/></g></svg>