<svg xmlns="http://www.w3.org/2000/svg" xmlns:xlink="http://www.w3.org/1999/xlink" width="29" height="30" viewBox="0 0 29 30"><defs><path id="a" d="M158.31 551.31a6.36 6.36 0 0 1-9.01 7.98l-1.76 1.92 1.25 1.26.75-.75a.98.98 0 0 1 1.4 0l6.07 6.14c.39.39.39 1 0 1.4l-2.77 2.77a.98.98 0 0 1-1.4 0l-6.07-6.15a.98.98 0 0 1 0-1.38l.68-.69-1.2-1.2-8.4 9.2c-.77.76-2.02.76-2.78 0l-.7-.7a1.96 1.96 0 0 1 0-2.78l9.59-8.02-6.37-6.38h-2l-2.33-3.75 1.87-1.87 3.82 2.34.03 1.97 6.44 6.46 1.87-1.57a6.36 6.36 0 0 1 7.54-9.66l-4.12 4.07 3.47 3.47zm-21.63 18a.98.98 0 1 0-1.39 1.39.98.98 0 0 0 1.39-1.39z"/><path id="d" d="M132 575v-31h29v31zm22.18-18.61l-3.47-3.47 4.12-4.07a6.38 6.38 0 0 0-7.54 9.66l-1.87 1.57-6.44-6.46-.03-1.97-3.82-2.34-1.87 1.87 2.32 3.74h2.01l6.37 6.39-9.59 8.02a1.96 1.96 0 0 0 0 2.78l.7.7c.76.76 2 .76 2.77 0l8.42-9.2 1.2 1.2-.7.69a.98.98 0 0 0 0 1.38l6.09 6.15c.38.38 1 .38 1.39 0l2.77-2.78c.39-.38.39-1 0-1.39l-6.08-6.14a.98.98 0 0 0-1.39 0l-.75.75-1.25-1.26 1.76-1.92a6.36 6.36 0 0 0 9.01-7.98zm-17.5 15.3a.98.98 0 1 1-1.39-1.38.98.98 0 0 1 1.39 1.39z"/><mask id="c" width="2" height="2" x="-1" y="-1"><path fill="#fff" d="M132 545h29v29h-29z"/><use xlink:href="#a"/></mask><filter id="b" width="49" height="50" x="122" y="535" filterUnits="userSpaceOnUse"><feOffset dy="1" in="SourceGraphic" result="FeOffset1047Out"/><feGaussianBlur in="FeOffset1047Out" result="FeGaussianBlur1048Out" stdDeviation="0 0"/></filter><filter id="e" width="200%" height="200%" x="-50%" y="-50%"><feGaussianBlur in="SourceGraphic" result="FeGaussianBlur1054Out" stdDeviation="0 0"/></filter><mask id="f"><use fill="#fff" xlink:href="#a"/></mask></defs><g transform="translate(-132 -545)"><g filter="url(#b)"><use fill="none" stroke-width="0" mask="url(&quot;#c&quot;)" xlink:href="#a"/><use fill="#fff" xlink:href="#a"/></g><use fill="#fff" xlink:href="#a"/><use fill="#86bbc1" xlink:href="#a"/><use fill="#675d53" fill-opacity=".19" stroke="#675d53" stroke-opacity=".19" stroke-width="0" filter="url(#e)" mask="url(&quot;#f&quot;)" xlink:href="#d"/></g></svg>