<svg xmlns="http://www.w3.org/2000/svg" xmlns:xlink="http://www.w3.org/1999/xlink" width="30" height="23" viewBox="0 0 30 23"><defs><path id="a" d="M823.5 799.22a9.48 9.48 0 0 1-1.73 3.64 13.95 13.95 0 0 1-7.22 4.8h-.05c-2.92.79-5.85.72-8.78-.2a13.28 13.28 0 0 1-6.18-4.64c1.55 1.22 2.98 1.82 4.32 1.83l.03-.01a7 7 0 0 0 5.61-2.07l.03-.03-.05-.05c-.9.04-1.51-.23-1.85-.82-.1-.39 0-.73.29-1.01.16-.19.4-.36.72-.51-1.58.04-2.68-.51-3.3-1.66.48-.51 1.09-.75 1.83-.71v-.03c-1.88-.5-2.87-1.42-2.96-2.75.48-.14.98-.22 1.5-.21v-.03c-1.46-.83-2.2-1.97-2.2-3.4 1.35.41 2.68.95 4 1.59 1.2.5 2.24 1.03 3.13 1.58.75.43 1.38.95 1.9 1.58l.03-.03.13-.1a14.1 14.1 0 0 1 1.85-4.08l.02-.04c.34-.5.78-1.03 1.33-1.62.26-.26.56-.5.91-.74.07.05-.03.28-.3.72a3.44 3.44 0 0 1 2.06-.94c.15.14-.1.42-.76.82.52-.2 1.1-.33 1.72-.4.27.03.36.17.29.41-.22.3-.96.59-2.2.86h-.03l.04.1a4.91 4.91 0 0 1 3.63 1.33 6.54 6.54 0 0 1 2.1 3.85c1.06.38 2.14.37 3.23-.04-.3.8-1.22 1.28-2.78 1.45h-.01v.15c1.43.28 2.4.33 2.88.16l.02.03c-.66.86-1.73 1.27-3.2 1.22z"/><path id="d" d="M798 811v-24h30v24zm25.5-10.78c1.47.05 2.54-.36 3.2-1.22l-.02-.03c-.49.17-1.45.12-2.88-.16v-.15c0-.01 0-.01 0 0 1.57-.17 2.5-.65 2.8-1.45-1.1.4-2.18.42-3.24.04a6.54 6.54 0 0 0-2.15-3.9 4.91 4.91 0 0 0-3.58-1.28l-.04-.1h.02c1.25-.27 1.99-.55 2.2-.86.08-.24-.01-.38-.28-.41-.63.07-1.2.2-1.72.4.65-.4.9-.68.76-.82-.64.01-1.34.33-2.06.94.27-.44.37-.67.3-.72-.35.23-.65.48-.91.74-.55.59-1 1.13-1.33 1.62l-.02.04a14.1 14.1 0 0 0-1.85 4.08l-.13.1-.03.03a6.81 6.81 0 0 0-1.9-1.58 22.88 22.88 0 0 0-3.14-1.58 27.65 27.65 0 0 0-3.98-1.6c-.01 1.44.73 2.58 2.19 3.41v.03c-.52-.01-1.02.07-1.5.2.1 1.34 1.08 2.25 2.96 2.76v.03c-.74-.04-1.35.2-1.82.71.61 1.15 1.7 1.7 3.29 1.66-.31.15-.56.32-.72.5-.29.3-.38.63-.29 1.02.34.59.95.86 1.85.82l.05.05-.03.03a7 7 0 0 1-5.61 2.07l-.03.01c-1.34 0-2.77-.61-4.32-1.83a13.28 13.28 0 0 0 6.18 4.64c2.93.92 5.86.99 8.78.2h.05a13.95 13.95 0 0 0 7.22-4.8 9.48 9.48 0 0 0 1.72-3.64z"/><mask id="c" width="2" height="2" x="-1" y="-1"><path fill="#fff" d="M798 788h30v22h-30z"/><use xlink:href="#a"/></mask><filter id="b" width="50" height="43" x="788" y="778" filterUnits="userSpaceOnUse"><feOffset dy="1" in="SourceGraphic" result="FeOffset1172Out"/><feGaussianBlur in="FeOffset1172Out" result="FeGaussianBlur1173Out" stdDeviation="0 0"/></filter><filter id="e" width="200%" height="200%" x="-50%" y="-50%"><feGaussianBlur in="SourceGraphic" result="FeGaussianBlur1179Out" stdDeviation="0 0"/></filter><mask id="f"><use fill="#fff" xlink:href="#a"/></mask></defs><g transform="translate(-798 -788)"><g filter="url(#b)"><use fill="none" stroke-width="0" mask="url(&quot;#c&quot;)" xlink:href="#a"/><use fill="#fff" xlink:href="#a"/></g><use fill="#95c5c4" xlink:href="#a"/><use fill="#86bbc1" xlink:href="#a"/><use fill="#675d53" fill-opacity=".19" stroke="#675d53" stroke-opacity=".19" stroke-width="0" filter="url(#e)" mask="url(&quot;#f&quot;)" xlink:href="#d"/></g></svg>